<svg viewBox="121.55000000000001 107.52499999999998 126.22500000000001 144.925" xmlns="http://www.w3.org/2000/svg" overflow="visible" xmlns:xlink="http://www.w3.org/1999/xlink" width="126.22500000000001px" height="144.925px"><g id="Master/Character/Avatar" stroke="none" stroke-width="1" fill="none" fill-rule="evenodd"><g id="Head" transform="translate(23.000000, 41.000000) scale(3.1538461538461537 3.150537634408602)"><g id="Head/Shaved" stroke="none" stroke-width="1" fill="none" fill-rule="evenodd"><g id="Group-11" transform="translate(32.000000, 22.000000)"><path d="M1.2169,19.4885 C1.1439,18.8515 1.1069,18.2045 1.1069,17.5485 C1.1069,7.8565 9.2629,0.0005 19.3239,0.0005 C28.3439,0.0005 36.4379,6.5575 37.8909,14.8475 C37.8909,14.8475 41.9449,37.0975 30.3079,43.7485 C26.0129,46.2025 13.5979,36.1025 13.5979,36.1025" id="Fill-1" fill="#7b3d16"/><path d="M37.8907,14.8479 C38.6747,18.9899 38.9687,23.2429 38.6747,27.4729 C38.3837,31.6789 37.4767,35.9939 35.1247,39.6439 C33.9557,41.4559 32.3627,43.0139 30.4777,44.1149 C29.3627,44.6879 28.1657,44.5479 27.1107,44.3289 C26.0437,44.0809 25.0387,43.6879 24.0667,43.2439 C22.1167,42.3609 20.3297,41.2019 18.5837,40.0099 C16.8427,38.8089 15.1817,37.4969 13.5977,36.1029 C17.0357,38.5329 20.5627,40.8819 24.3587,42.5949 C25.3077,43.0099 26.2827,43.3719 27.2727,43.5859 C28.2507,43.7829 29.2987,43.8379 30.0837,43.4069 C31.8457,42.3959 33.3687,40.9479 34.4967,39.2299 C35.6277,37.5089 36.4527,35.5829 37.0047,33.5779 C37.5707,31.5769 37.9477,29.5139 38.1437,27.4289 C38.5337,23.2569 38.4217,19.0279 37.8907,14.8479" id="Fill-3" fill="#000"/><path d="M13.1568,20.2072 C14.3208,19.3172 16.3738,21.2332 18.1538,19.7282 C19.9328,18.2222 14.6628,9.5992 18.2898,7.3402 C21.9178,5.0812 30.8148,9.5302 33.0048,8.9822 C34.2118,8.6812 34.5438,8.0482 34.6008,7.5392 C31.1168,3.0172 25.4368,0.0002 19.3238,0.0002 C9.2628,0.0002 1.1068,7.8562 1.1068,17.5482 C1.1068,18.2042 1.1438,18.8512 1.2168,19.4882 C1.2168,19.4882 7.3458,18.9412 9.3978,22.0602 C10.2948,23.4242 11.2598,25.8532 12.4048,25.6832 C14.1298,25.4262 11.9938,21.0972 13.1568,20.2072" id="Fill-5" fill="#000000"/><path d="M10.8605,31.6428 C10.3635,32.4938 9.1715,32.8128 8.2325,32.8428 C5.7275,32.9238 1.9145,29.7688 0.7515,25.5338 C-0.4115,21.2988 1.3435,18.3058 3.8475,18.2248 C5.6985,18.1648 7.8995,19.5968 9.3915,22.0568" id="Fill-7" fill="#7b3d16"/><path d="M10.8605,31.6428 C10.5625,32.2098 9.9655,32.5728 9.3585,32.7628 C8.7475,32.9558 8.0875,33.0348 7.4345,32.9268 C6.1315,32.7178 4.9975,31.9958 4.0105,31.1788 C2.0385,29.5218 0.6135,27.1698 0.1605,24.5928 C-0.0755,23.3118 -0.0815,21.9528 0.3495,20.6618 C0.7815,19.4028 1.8215,18.1778 3.2565,17.9328 C4.6765,17.6798 5.9895,18.3148 7.0055,19.0848 C8.0405,19.8768 8.8235,20.9318 9.3905,22.0568 C8.6455,21.0368 7.7525,20.1438 6.7315,19.4718 C5.7235,18.8058 4.4925,18.4128 3.4015,18.6458 C2.3065,18.8928 1.4805,19.8308 1.1145,20.9308 C0.7255,22.0348 0.6985,23.2708 0.9015,24.4628 C1.0915,25.6648 1.5145,26.8238 2.1175,27.8868 C2.7185,28.9478 3.4525,29.9528 4.3635,30.7788 C5.2605,31.6088 6.3185,32.3098 7.4955,32.6088 C8.0795,32.7538 8.7095,32.7328 9.3105,32.5908 C9.9015,32.4458 10.5035,32.1758 10.8605,31.6428" id="Fill-9" fill="#000"/></g></g></g><g id="Expressions" transform="translate(168.000000, 132.000000) scale(3.161290322580645 3.1470588235294117)" fill="#000"><g id="Expressions/Joyful" stroke="none" stroke-width="1" fill="none" fill-rule="evenodd"><path d="M12.6625103,24.4936872 C12.8037789,23.736968 13.3733728,23.405523 14.0408781,23.7786434 L14.1529789,23.8474018 C15.4255317,24.6970687 17.3658477,25.0475848 19.9758181,24.8789298 C20.1824938,24.8655745 20.3608642,25.0222917 20.3742195,25.2289674 C20.3875748,25.4356431 20.2308576,25.6140135 20.0241819,25.6273688 C17.3959741,25.7972023 15.3692158,25.4617665 13.9455411,24.6037669 L13.7365133,24.4711456 C13.4970658,24.3112697 13.4554968,24.3328334 13.399773,24.6313235 C13.3493248,24.9015542 13.3748666,25.2675512 13.4709813,25.6624151 L13.491,25.739 L13.5074644,25.7196304 C13.5754812,25.6514515 13.668738,25.6103963 13.7684009,25.6092214 L13.8440549,25.6160172 C16.2066087,26.0705187 17.8961684,27.0272797 18.8896318,28.4955573 C19.0284539,28.7007278 18.9337266,28.9817369 18.6990249,29.0609938 C16.0794452,29.9456044 14.0554947,28.8929173 13.0757097,26.7872107 C12.7012859,25.9825171 12.5470194,25.1123258 12.6625103,24.4936872 Z M13.704,26.352 L13.7557028,26.47081 C14.4977578,28.0655988 15.895375,28.9175724 17.7854091,28.5334931 L17.948,28.496 L17.8079878,28.3387258 C16.9599371,27.4303958 15.708158,26.7901072 14.041283,26.422415 L13.704,26.352 Z" id="Path-2" fill="#000" fill-rule="nonzero"/><g id="Group" transform="translate(21.754658, 7.922394) rotate(7.000000) translate(-21.754658, -7.922394) translate(19.254658, 5.422394)" fill="#000"><g id="Group-18"><path d="M0.017585448,4.63233625 C0.380950805,3.52891014 0.923821996,2.47790812 1.63916615,1.70112436 C2.35015661,0.916779447 3.17635231,0.413205815 4.00288291,0.0492617078 L4.00824129,0.0472453969 C4.4184925,-0.133718501 4.84850275,0.221152207 4.96873147,0.838647402 C5.08862529,1.45664667 4.85319133,2.10337838 4.44294012,2.28434227 C4.38064892,2.31156247 4.31400403,2.3266848 4.25238262,2.33071742 C3.51225595,2.36902733 2.77882726,2.51722618 2.10132669,2.92502504 C1.42315633,3.32475867 0.809621456,4.01685736 0.296221371,4.91209938 C0.235269763,5.0179557 0.128771898,5.03005356 0.0584431194,4.93831142 C-0.00116889303,4.86068345 -0.0159044467,4.73365587 0.017585448,4.63233625" id="Fill-9-Copy" transform="translate(2.500000, 2.500000) scale(-1, 1) translate(-2.500000, -2.500000)"/></g></g><g id="Group-12-Copy" transform="translate(5.000000, 4.000000)" fill="#000"><path d="M13.5379491,8.25091701 C13.6180931,9.32773995 14.0257588,10.3861031 14.5295974,11.3788312 C15.0467932,12.36797 15.6660391,13.3217275 16.3990894,14.1606238 C16.5850235,14.3667585 16.7757662,14.568791 16.9771947,14.7513381 C17.0744361,14.8492777 17.181829,14.9261937 17.2844133,15.0123395 C17.3736403,15.0866915 17.5472856,15.2225763 17.6642958,15.3584611 C17.7893205,15.5061397 17.9100707,15.681508 17.9693773,15.9096919 C18.0292181,16.1378758 17.9982291,16.3983644 17.9036592,16.5983458 C17.7091765,17.0039491 17.3992864,17.2157243 17.1113023,17.3905799 C16.5209083,17.7274716 15.8941823,17.866433 15.2695935,17.95463 C14.6439361,18.0310331 14.0033185,18.0166755 13.3840726,17.8674586 C13.2403477,17.8331028 13.1532579,17.6936286 13.1895899,17.5556927 C13.2216475,17.4316017 13.3434663,17.3516091 13.4716967,17.3623773 L13.4781082,17.3628901 C14.0327046,17.4080141 14.5985212,17.3551985 15.1451032,17.2444396 C15.6890137,17.1367573 16.2249098,16.9439547 16.653413,16.6850044 C16.8639246,16.5588623 17.0391727,16.3916984 17.085122,16.2676074 C17.1294683,16.1568484 17.1080966,16.0876241 16.9734547,15.9271262 C16.8965164,15.8455953 16.8345384,15.8050863 16.7004308,15.6907379 C16.5807491,15.5876706 16.4519845,15.4892182 16.3451258,15.3784593 C16.1175169,15.1656586 15.911814,14.9400385 15.7125226,14.7113418 C14.9329888,13.7873252 14.290234,12.7807522 13.8093701,11.6982887 C13.3236975,10.625568 12.9593095,9.46311197 13.0036558,8.2473276 C13.0084645,8.1058023 13.1324205,7.99504337 13.2798854,8.0001711 C13.4171988,8.00478606 13.5267289,8.10785339 13.5368805,8.23655937 L13.5379491,8.25091701 Z" id="Fill-1"/><path d="M4.00075166,11.7502749 C4.063031,11.0408329 4.4044141,10.3320317 4.92398533,9.85778861 C5.43605998,9.3732916 6.0876865,9.09579531 6.74796292,9.02081363 C7.40939267,8.94390934 8.09677215,9.07977358 8.68900262,9.43417416 C9.28526972,9.78152519 9.75524814,10.3781743 9.98418241,11.0459598 C10.0314686,11.1850284 9.96918923,11.3394779 9.84463053,11.39267 C9.74429158,11.4349673 9.63530272,11.3990787 9.57129339,11.3112796 L9.56610345,11.3042301 C8.87353402,10.3544621 7.85976463,9.92379812 6.82984873,10.012238 C5.80742943,10.0961919 4.81845644,10.7159123 4.39403421,11.8573 C4.35193798,11.9739382 4.23314589,12.0303347 4.12819366,11.9835512 C4.04227122,11.9450991 3.99325507,11.8470461 4.00075166,11.7502749" id="Fill-3"/><path d="M1.05567655,4.58091006 C1.87409017,3.55772659 2.97844198,2.63665308 4.31413354,2.04222724 C5.6441964,1.43842396 7.1104739,1.15189091 8.54973363,1.00810342 L8.55873955,1.00706148 C9.27302215,0.935688699 9.91525732,1.41341744 9.99237057,2.0750483 C10.0694838,2.73615819 9.55333163,3.33058403 8.83848616,3.4019568 C8.73041504,3.41289716 8.61727808,3.41029231 8.51370992,3.39726808 C7.28214939,3.23368376 6.03933145,3.18419169 4.8387288,3.4139391 C3.63812614,3.63483003 2.48705608,4.17090732 1.46206901,4.94142074 C1.34048899,5.03259034 1.16149619,5.01539836 1.06299386,4.90338999 C0.979689038,4.80805262 0.980814779,4.67468451 1.05567655,4.58091006" id="Fill-7" transform="translate(5.500000, 3.000000) rotate(-9.000000) translate(-5.500000, -3.000000)"/><g id="Group-11" transform="translate(14.000000, 9.000000)"><path d="M0.202625,1.7113 C0.335125,1.3438 0.55075,1.0143 0.86825,0.7128 C1.185125,0.4203 1.63825,0.1413 2.2345,0.0838 C2.37825,0.0593 2.528875,0.0773 2.6745,0.0828 C2.802625,0.1043 2.932625,0.1158 3.058875,0.1508 C3.31325,0.2088 3.555125,0.3103 3.766375,0.4368 C4.195125,0.6963 4.47075,1.0508 4.57075,1.4643 C4.59825,1.5768 4.507,1.6858 4.366375,1.7073 C4.267,1.7228 4.17075,1.6908 4.112625,1.6318 L4.081375,1.5998 C3.857625,1.3708 3.5595,1.1638 3.267,1.0398 C3.117,0.9753 2.962625,0.9258 2.796375,0.8968 C2.717625,0.8743 2.628875,0.8713 2.546375,0.8568 C2.47575,0.8638 2.407625,0.8433 2.337625,0.8558 C1.77075,0.8803 1.1295,1.3758 0.597,1.8653 L0.583875,1.8773 C0.50325,1.9513 0.362625,1.9593 0.270125,1.8948 C0.202625,1.8478 0.1795,1.7758 0.202625,1.7113" id="Fill-9"/></g></g></g></g></g></svg>