<svg viewBox="53.22413793103448 353.8499999999999 494.2241379310346 644.5124999999997" fill="none" xmlns="http://www.w3.org/2000/svg" xmlns:xlink="http://www.w3.org/1999/xlink" overflow="visible" width="494.2241379310346px" height="644.5124999999997px"><g id="Master/Male Character/Sitting"><g id="Male Lower Sitting" transform="translate(148 638) scale(1 1)"><g id="Male Lower Sitting/Relaxed 1"><g id="Group 38"><path id="Fill 1" fill-rule="evenodd" clip-rule="evenodd" d="M14.5312 88.037L23.2872 34.862C23.2872 34.862 41.2832 20 86.2002 20C131.118 20 144.989 34.862 144.989 34.862L152.981 88.697C148.867 99.637 119.316 135.941 91.1182 149.138C91.1182 149.138 57.1362 105.541 14.5312 88.037" fill="#E35A38"/><path id="Fill 3" fill-rule="evenodd" clip-rule="evenodd" d="M393.246 327.107C392.706 324.708 391.475 321.307 388.736 320.097C376.346 314.607 345.656 329.658 335.556 312.648C325.829 296.254 318.528 209.857 309.917 175.593C310.547 174.933 313.594 171.514 314.096 166.578C314.656 160.987 311.136 156.828 311.136 156.828C311.136 156.828 313.536 153.748 312.416 147.367C311.486 142.067 308.145 138.837 308.145 138.837C308.145 138.837 310.435 135.067 308.456 128.137C306.386 120.897 300.986 119.796 300.986 119.796C300.986 119.796 301.096 114.527 296.036 111.437C291.523 108.694 286.513 110.306 286.451 110.326C286.447 110.324 172.855 70.9143 86.3723 88.0373C86.3723 88.0373 78.6193 164.097 140.931 164.097H254.036H254.037C262.298 257.138 293.616 272.9 307.856 347.658L312.006 357.878C312.006 357.878 344.466 353.387 376.656 342.367C385.366 339.387 389.866 336.248 392.466 331.967C393.346 330.517 393.616 328.767 393.246 327.107" fill="#E35A38"/><path id="Fill 5" fill-rule="evenodd" clip-rule="evenodd" d="M150.443 75.3876C151.483 73.3346 153.988 72.5136 156.041 73.5526C158.093 74.5916 158.916 77.0966 157.876 79.1516C140.251 113.963 115.45 132.316 98.7852 137.115C113.187 124.27 133.821 108.218 150.443 75.3876" fill="#FDCF3C"/><path id="Fill 7" fill-rule="evenodd" clip-rule="evenodd" d="M239.305 156.826C239.305 156.826 242.324 153.278 241.207 146.9C240.277 141.592 236.314 138.84 236.314 138.84C236.314 138.84 238.736 134.904 236.286 127.721C233.858 120.597 229.158 119.794 229.158 119.794C229.158 119.794 229.362 114.574 224.298 111.492C219.759 108.729 214.61 110.326 214.61 110.326C214.61 110.326 101.015 70.9131 14.5306 88.0371C14.5306 88.0371 6.77659 164.097 69.0886 164.097H182.206C147.071 196.597 138.874 245.096 89.5516 303.058L84.1936 312.693C84.1936 312.693 108.037 335.176 136.801 353.351C144.584 358.269 149.855 359.798 154.81 359.145C156.5 358.923 158.032 358.037 159.093 356.704C160.624 354.779 162.497 351.691 161.726 348.795C158.236 335.698 127.271 321.222 134.196 302.697C140.895 284.772 210.222 233.408 237.965 175.721C237.965 175.721 241.708 172.088 242.259 166.582C242.819 160.983 239.305 156.826 239.305 156.826" fill="#E35A38"/><path id="Fill 9" fill-rule="evenodd" clip-rule="evenodd" d="M16.158 87.829C13.471 88.468 10.776 86.808 10.137 84.122C9.498 81.435 11.155 78.741 13.845 78.1C59.408 67.265 95.452 75.764 112.768 87.314C89.834 84.074 59.128 77.61 16.158 87.829" fill="#FDCF3C"/><g id="Group 13"><mask id="mask0_122_207063d8d4522-07b5-4bed-ab99-275d602302aa" style="mask-type:alpha" maskUnits="userSpaceOnUse" x="308" y="320" width="86" height="38" fill="#ffffff"><path id="Clip 12" fill-rule="evenodd" clip-rule="evenodd" d="M308.689 320.896H393.409V357.885H308.689V320.896Z" fill="#ffffff"/></mask><g mask="url(#mask0_122_207063d8d4522-07b5-4bed-ab99-275d602302aa)"><path id="Fill 11" fill-rule="evenodd" clip-rule="evenodd" d="M308.689 349.72V349.72C308.689 349.72 363.026 339.024 373.139 334.584C383.238 330.151 388.822 324.607 389.965 320.896C391.85 322.44 392.795 325.116 393.245 327.116C393.619 328.779 393.349 330.527 392.463 331.983C389.865 336.253 385.37 339.402 376.66 342.383C344.468 353.401 312.005 357.885 312.005 357.885L308.689 349.72Z" fill="#BF432B"/></g></g><path id="Fill 14" fill-rule="evenodd" clip-rule="evenodd" d="M308.69 349.72C308.419 345.308 309.169 340.96 310.439 336.758C311.738 332.564 313.697 328.496 316.456 324.847C317.865 323.044 319.477 321.35 321.341 319.904C323.2 318.466 325.311 317.25 327.615 316.557C329.904 315.844 332.32 315.61 334.619 315.869L336.315 316.178C336.873 316.284 337.411 316.493 337.942 316.673C339.015 316.988 340.001 317.569 340.951 318.091C338.731 318.22 336.674 318.349 334.741 318.816C332.817 319.295 331.058 319.988 329.447 320.905C326.214 322.717 323.605 325.469 321.211 328.502C318.866 331.597 316.759 335.014 314.766 338.598L308.69 349.72Z" fill="#BF432B"/><path id="Fill 16" fill-rule="evenodd" clip-rule="evenodd" d="M88.4764 304.991V304.991C88.4764 304.991 130.872 340.624 140.669 345.72C150.454 350.809 158.274 351.684 161.882 350.249C161.861 352.685 160.369 355.098 159.092 356.704C158.031 358.038 156.499 358.923 154.809 359.145C149.853 359.798 144.583 358.269 136.8 353.351C108.037 335.176 84.1934 312.693 84.1934 312.693L88.4764 304.991Z" fill="#BF432B"/><path id="Fill 18" fill-rule="evenodd" clip-rule="evenodd" d="M88.4766 304.991C91.7456 302.015 95.6026 299.874 99.6726 298.228C103.756 296.612 108.153 295.589 112.726 295.45C115.013 295.419 117.344 295.612 119.639 296.159C121.925 296.706 124.195 297.588 126.18 298.948C128.169 300.286 129.867 302.021 131.105 303.974L131.928 305.49C132.195 305.991 132.369 306.542 132.563 307.068C132.99 308.1 133.155 309.232 133.344 310.302C131.852 308.652 130.462 307.13 128.886 305.917C127.307 304.719 125.665 303.781 123.941 303.101C120.502 301.719 116.722 301.411 112.858 301.447C108.977 301.559 104.994 302.06 100.952 302.753L88.4766 304.991Z" fill="#BF432B"/><path id="Fill 20" fill-rule="evenodd" clip-rule="evenodd" d="M214.61 110.326C198.155 106.161 181.676 102.415 165.139 99.0291C156.857 97.4111 148.595 95.7241 140.277 94.3671C131.973 92.9381 123.656 91.6091 115.31 90.5181C106.968 89.3991 98.6073 88.4711 90.2343 87.6791C81.8593 86.8811 73.4633 86.4631 65.0583 86.0761C60.8573 85.9891 56.6492 85.8581 52.4432 85.8911C48.2302 85.8141 44.0273 85.9941 39.8113 86.0851C31.3873 86.3951 22.9782 87.1031 14.5312 88.0371C22.7253 85.7921 31.1232 84.2891 39.5742 83.1481C48.0402 82.1561 56.5613 81.5711 65.0933 81.3941C73.6252 81.2231 82.1562 81.5401 90.6722 82.0141C99.1812 82.5871 107.665 83.4601 116.113 84.5761C124.546 85.7961 132.954 87.1591 141.308 88.7971C149.65 90.4891 157.963 92.3121 166.187 94.4841C182.643 98.7561 198.919 103.798 214.61 110.326" fill="#BF432B"/><path id="Fill 22" fill-rule="evenodd" clip-rule="evenodd" d="M236.315 138.84C236.315 138.84 238.737 134.904 236.288 127.721C233.859 120.598 229.159 119.794 229.159 119.794C229.159 119.794 229.363 114.574 224.299 111.492C219.76 108.73 214.611 110.326 214.611 110.326L182.207 164.098L237.966 175.721C237.966 175.721 241.71 172.087 242.26 166.583C242.82 160.984 239.306 156.827 239.306 156.827C239.306 156.827 242.325 153.278 241.209 146.902C240.278 141.592 236.315 138.84 236.315 138.84" fill="#FDCF3C"/><path id="Fill 24" fill-rule="evenodd" clip-rule="evenodd" d="M182.207 164.098C186.86 162.665 191.566 161.648 196.284 160.725C201.005 159.828 205.746 159.087 210.504 158.479C215.262 157.87 220.038 157.4 224.832 157.084C229.631 156.793 234.442 156.602 239.306 156.827C234.653 158.264 229.948 159.285 225.23 160.204C220.509 161.101 215.768 161.843 211.009 162.446C206.25 163.049 201.475 163.52 196.68 163.834C191.881 164.124 187.071 164.319 182.207 164.098" fill="#FCAE3D"/><path id="Fill 26" fill-rule="evenodd" clip-rule="evenodd" d="M229.159 119.794C225.818 124.092 222.19 128.086 218.496 132.01C214.785 135.915 210.966 139.706 207.055 143.399C203.145 147.094 199.138 150.687 195.024 154.165C190.894 157.627 186.695 161.015 182.207 164.098C185.545 159.796 189.17 155.8 192.866 151.878C196.577 147.973 200.396 144.181 204.311 140.491C208.225 136.801 212.231 133.208 216.346 129.73C220.477 126.27 224.675 122.88 229.159 119.794" fill="#FCAE3D"/><path id="Fill 28" fill-rule="evenodd" clip-rule="evenodd" d="M236.315 138.84C232.159 141.699 227.825 144.181 223.451 146.574C219.066 148.944 214.615 151.173 210.107 153.28C205.599 155.388 201.032 157.368 196.399 159.208C191.756 161.026 187.071 162.752 182.207 164.098C186.362 161.234 190.694 158.75 195.069 156.358C199.454 153.987 203.905 151.759 208.416 149.657C212.925 147.554 217.492 145.573 222.125 143.735C226.769 141.918 231.454 140.19 236.315 138.84" fill="#FCAE3D"/><path id="Fill 30" fill-rule="evenodd" clip-rule="evenodd" d="M308.146 138.84C308.146 138.84 310.433 135.069 308.451 128.133C306.384 120.898 300.99 119.794 300.99 119.794C300.99 119.794 301.097 114.524 296.032 111.441C291.494 108.679 286.442 110.326 286.442 110.326L254.039 164.098L309.798 175.721C309.798 175.721 313.541 172.087 314.091 166.583C314.651 160.984 311.137 156.827 311.137 156.827C311.137 156.827 313.531 153.749 312.415 147.372C311.484 142.063 308.146 138.84 308.146 138.84" fill="#FDCF3C"/><path id="Fill 32" fill-rule="evenodd" clip-rule="evenodd" d="M254.039 164.098C258.692 162.665 263.397 161.648 268.116 160.725C272.837 159.828 277.578 159.087 282.335 158.479C287.093 157.87 291.869 157.4 296.664 157.084C301.462 156.793 306.273 156.602 311.138 156.827C306.485 158.264 301.78 159.285 297.061 160.204C292.34 161.101 287.6 161.843 282.841 162.446C278.082 163.049 273.307 163.52 268.512 163.834C263.713 164.124 258.902 164.319 254.039 164.098" fill="#FCAE3D"/><path id="Fill 34" fill-rule="evenodd" clip-rule="evenodd" d="M300.991 119.794C297.65 124.092 294.022 128.086 290.328 132.01C286.617 135.915 282.798 139.706 278.887 143.399C274.977 147.094 270.97 150.687 266.856 154.165C262.726 157.627 258.527 161.015 254.039 164.098C257.377 159.796 261.003 155.8 264.698 151.878C268.409 147.973 272.228 144.181 276.143 140.491C280.057 136.801 284.064 133.208 288.178 129.73C292.309 126.27 296.507 122.88 300.991 119.794" fill="#FCAE3D"/><path id="Fill 36" fill-rule="evenodd" clip-rule="evenodd" d="M308.147 138.84C303.99 141.699 299.657 144.181 295.283 146.574C290.898 148.944 286.446 151.173 281.939 153.28C277.431 155.388 272.864 157.368 268.231 159.208C263.588 161.026 258.902 162.752 254.039 164.098C258.193 161.234 262.525 158.75 266.9 156.358C271.286 153.987 275.737 151.759 280.247 149.657C284.757 147.554 289.324 145.573 293.957 143.735C298.601 141.918 303.285 140.19 308.147 138.84" fill="#FCAE3D"/></g></g></g><g id="Male Upper" transform="translate(0 157) scale(1 1)"><g id="Male Upper/Waving 2"><g id="Group 42"><path id="Fill 1" fill-rule="evenodd" clip-rule="evenodd" d="M408.794 384.249L379.845 376.13L356.053 447.33C352.805 440.223 327.325 385.754 299.19 363.11C299.187 363.096 299.185 363.081 299.182 363.066L268.898 356.691C275.341 395.826 251.776 493.498 248.528 504.473C246.068 493.507 233.113 395.881 183.677 356.113L150.574 362.622C150.432 363.536 150.285 364.479 150.136 365.436C149.07 365.434 147.96 365.48 146.786 365.595C122.796 381.891 107.255 414.52 94.3334 439.483C80.9484 465.338 64.0864 499.531 65.2624 528.914C65.7614 541.382 65.5454 553.922 65.6874 566.4C65.9014 585.301 66.1154 604.202 66.3294 623.103H97.2654L110.246 505.633L110.751 506.02C141.243 464.901 160.127 434.14 160.143 434.14C171.152 490.947 171.133 508.415 171.133 508.415C171.133 508.415 248.741 505.415 248.737 505.399L292.815 508.415C293.476 506.324 299.245 433.699 299.245 433.699C299.245 433.699 299.29 433.413 299.369 432.887C305.772 445.59 313.044 457.87 320.303 470.095C326.707 480.879 330.523 494.944 343.962 498.115C347.719 499.001 351.626 499.046 355.479 498.799C363.119 498.311 370.974 496.558 376.998 491.833C385.44 485.211 408.752 384.237 408.794 384.249" fill="#E35A38"/><g id="Group 5"><path id="Fill 3" fill-rule="evenodd" clip-rule="evenodd" d="M410.966 377.355C414.63 372.187 418.156 365.754 419.658 359.599C420.526 356.041 420.614 352.313 421.664 348.803C423.741 341.857 429.418 336.294 430.86 329.188C431.054 328.232 431.132 327.13 430.496 326.39C430.001 325.814 429.167 325.615 428.416 325.728C427.665 325.842 426.981 326.225 426.356 326.656C424.165 328.168 422.494 330.314 421.01 332.525C419.557 334.69 418.247 336.952 417.092 339.291C417.071 338.062 417.103 336.833 417.235 335.61C417.962 328.905 421.652 322.903 423.362 316.378C423.558 315.632 423.728 314.859 423.631 314.094C423.533 313.328 423.118 312.562 422.418 312.238C421.75 311.928 420.965 312.068 420.257 312.272C419.204 312.574 418.172 313.013 417.33 313.714C416.33 314.547 415.653 315.697 415.024 316.836C411.674 322.899 409.068 329.372 407.279 336.063C406.062 329.792 406.53 323.192 408.657 317.164C409.655 314.335 411.033 311.415 410.464 308.469C410.335 307.797 410.072 307.102 409.51 306.713C408.636 306.109 407.431 306.476 406.506 306.999C404.026 308.402 402.187 310.75 400.919 313.302C399.652 315.855 398.904 318.628 398.165 321.38C397.073 325.443 395.981 329.507 394.884 333.568C394.181 328.35 394.363 323.012 395.425 317.855C395.89 315.603 396.523 313.358 396.52 311.059C396.52 310.262 396.389 309.366 395.749 308.891C395.236 308.509 394.529 308.514 393.905 308.656C392.301 309.021 390.958 310.17 390.045 311.538C389.132 312.907 388.599 314.49 388.135 316.068C385.07 326.487 384.598 337.458 384.265 348.325C382.761 344.283 381.21 340.257 379.384 336.351C378.456 334.363 377.442 332.387 376.005 330.73C375.775 330.465 375.526 330.202 375.205 330.061C374.601 329.794 373.866 330.032 373.387 330.486C372.909 330.941 372.642 331.572 372.438 332.2C371.734 334.369 372 336.878 372.09 339.158C372.482 349.091 377.383 360.626 382.246 369.296L410.966 377.355Z" fill="#16494C"/></g><path id="Fill 6" fill-rule="evenodd" clip-rule="evenodd" d="M384.277 348.075C386.497 347.807 388.768 347.612 391.097 348.307C393.388 349.065 395.211 350.335 397.123 351.423C399.062 352.606 400.939 354.079 402.297 356.005C403.674 357.902 404.449 360.232 404.373 362.486C403.615 360.361 402.523 358.514 401.086 356.989C399.645 355.469 397.938 354.225 396.09 353.134L393.285 351.364C392.372 350.757 391.465 350.215 390.546 349.761C388.694 348.908 386.454 348.62 384.277 348.075" fill="#CADBDA"/><path id="Fill 8" fill-rule="evenodd" clip-rule="evenodd" d="M408.62 386.59L379.394 378.393C377.47 377.854 376.338 375.838 376.877 373.914L377.805 370.608C378.344 368.685 380.36 367.552 382.284 368.092L411.509 376.288C413.433 376.828 414.566 378.844 414.026 380.767L413.099 384.073C412.56 385.997 410.544 387.13 408.62 386.59" fill="#FDCF3C"/><path id="Fill 10" fill-rule="evenodd" clip-rule="evenodd" d="M382.116 486.931C382.116 486.931 374.775 505.731 354.87 505.412C338.367 505.146 331.286 490.559 331.286 490.559L355.591 445.638L382.116 486.931Z" fill="#FDCF3C"/><path id="Fill 12" fill-rule="evenodd" clip-rule="evenodd" d="M355.592 445.638C355.584 450.572 355.151 455.431 354.621 460.272C354.066 465.108 353.351 469.917 352.5 474.7C351.649 479.484 350.657 484.243 349.506 488.973C348.332 493.699 347.054 498.407 345.351 503.039C345.354 498.104 345.784 493.245 346.316 488.404C346.872 483.568 347.587 478.759 348.443 473.977C349.299 469.194 350.291 464.435 351.442 459.705C352.619 454.979 353.893 450.271 355.592 445.638" fill="#FCAE3D"/><path id="Fill 14" fill-rule="evenodd" clip-rule="evenodd" d="M355.592 445.638C357.493 450.098 358.973 454.655 360.358 459.233C361.716 463.818 362.917 468.438 363.983 473.09C365.05 477.741 365.976 482.424 366.746 487.143C367.491 491.868 368.135 496.616 368.358 501.46C366.452 497.001 364.969 492.445 363.587 487.866C362.229 483.281 361.027 478.661 359.967 474.008C358.905 469.356 357.978 464.673 357.209 459.953C356.466 455.228 355.819 450.481 355.592 445.638" fill="#FCAE3D"/><path id="Fill 16" fill-rule="evenodd" clip-rule="evenodd" d="M66.33 630.369C63.523 633.176 60 648.699 60 658.057C60 661.919 61.338 665.787 64.073 666.094C67.025 666.425 67.043 664.345 69.795 664.565C71.944 664.737 71.669 668.13 74.916 668.342C78.494 668.576 78.971 665.346 80.532 665.378C83.174 665.433 82.839 669.166 86.426 669.084C90.553 668.989 89.669 665.874 92.422 666.039C94.071 666.138 93.743 669.176 97.046 669.176C100.348 669.176 101.559 666.229 101.669 663.837C101.779 661.445 101.449 656.543 100.899 653.158C100.348 649.773 109.926 650.626 109.926 642.149C109.926 633.672 98.202 630.369 98.202 630.369H66.33Z" fill="#16494C"/><path id="Fill 18" fill-rule="evenodd" clip-rule="evenodd" d="M99.9368 639.264C100.457 640.377 100.697 641.605 100.773 642.797C100.841 643.955 100.939 645.017 101.04 646.156C101.14 647.295 101.228 648.359 101.362 649.51C101.495 650.698 101.469 651.95 101.148 653.136C100.63 652.001 100.261 650.943 99.8308 649.868C99.4018 648.759 99.1448 647.512 99.0488 646.33C98.9418 645.149 98.9778 643.878 99.2078 642.71C99.4468 641.578 99.6258 640.471 99.9368 639.264" fill="#CADBDA"/><path id="Fill 20" fill-rule="evenodd" clip-rule="evenodd" d="M97.2653 631.387H66.9123C64.9133 631.387 63.2793 629.752 63.2793 627.754V623.763C63.2793 621.764 64.9133 620.13 66.9123 620.13H97.2653C99.2633 620.13 100.898 621.764 100.898 623.763V627.754C100.898 629.752 99.2633 631.387 97.2653 631.387" fill="#FDCF3C"/><path id="Fill 22" fill-rule="evenodd" clip-rule="evenodd" d="M268.896 356.68L256.385 353.708C244.694 349.139 237.76 345.854 226.198 345.854C215.818 345.854 197.354 353.419 197.354 353.419L183.678 356.113C226.413 398.185 248.761 505.494 248.761 505.494C248.761 505.494 280.721 396.209 268.896 356.68" fill="#FCE9D4"/><path id="Fill 24" fill-rule="evenodd" clip-rule="evenodd" d="M299.246 433.699C299.246 433.699 306.147 393.809 295.786 364.629C294.862 362.027 296.222 359.168 298.825 358.244C301.424 357.321 304.35 358.658 305.21 361.283C314.21 388.772 305.614 417.176 299.246 433.699" fill="#FDCF3C"/><path id="Fill 26" fill-rule="evenodd" clip-rule="evenodd" d="M76.7335 479.929C76.7335 479.929 71.6145 482.324 68.9205 486.893C66.2205 491.475 68.2355 498.049 68.2355 498.049C68.2355 498.049 64.5815 500.569 63.4695 506.336C62.5765 510.969 65.1185 516.204 65.1185 516.204C66.8805 516.534 108.494 521.489 108.494 521.489C108.494 521.489 109.76 519.645 110.091 517.415C110.421 515.186 109.256 512.959 109.256 512.959C109.256 512.959 110.624 511.851 111.1 509.968C111.577 508.085 110.751 506.021 110.751 506.021L76.7335 479.929Z" fill="#FDCF3C"/><path id="Fill 28" fill-rule="evenodd" clip-rule="evenodd" d="M109.256 512.958C105.555 512.493 101.99 511.655 98.4654 510.703C94.9474 509.737 91.4824 508.623 88.0634 507.382C84.6434 506.143 81.2714 504.771 77.9534 503.254C74.6404 501.721 71.3694 500.073 68.2354 498.048C71.9384 498.508 75.5044 499.345 79.0284 500.298C82.5464 501.265 86.0114 502.378 89.4294 503.624C92.8464 504.869 96.2184 506.239 99.5364 507.758C102.849 509.291 106.12 510.938 109.256 512.958" fill="#FCAE3D"/><path id="Fill 30" fill-rule="evenodd" clip-rule="evenodd" d="M160.144 434.14C160.954 414.861 160.815 379.63 147.079 366.198C145.104 364.268 145.069 361.102 147 359.127C148.93 357.153 152.096 357.117 154.07 359.048C169.372 374.011 170.644 413.369 160.144 434.14" fill="#FDCF3C"/><path id="Fill 32" fill-rule="evenodd" clip-rule="evenodd" d="M292.816 520.243L171.134 520.264V505.416H292.816V520.243Z" fill="#16494C"/><path id="Fill 34" fill-rule="evenodd" clip-rule="evenodd" d="M261.003 512.84C261.003 518.307 255.651 522.739 249.049 522.739C242.447 522.739 237.095 518.307 237.095 512.84C237.095 507.373 242.447 502.941 249.049 502.941C255.651 502.941 261.003 507.373 261.003 512.84" fill="#FDCF3C"/><path id="Fill 36" fill-rule="evenodd" clip-rule="evenodd" d="M271.324 378.639C271.334 379.949 271.314 381.279 271.274 382.639H203.914C203.104 381.289 202.284 379.949 201.454 378.639H271.324Z" fill="#E2C9B0"/><path id="Fill 38" fill-rule="evenodd" clip-rule="evenodd" d="M269.004 410.349C268.834 411.679 268.654 413.009 268.464 414.349H219.884C219.304 413.009 218.724 411.679 218.124 410.349H269.004Z" fill="#E2C9B0"/><path id="Fill 40" fill-rule="evenodd" clip-rule="evenodd" d="M262.274 449.319C262.004 450.669 261.714 451.999 261.434 453.319H234.424C233.994 451.999 233.554 450.669 233.114 449.319H262.274Z" fill="#E2C9B0"/></g></g></g><g id="Male Head" transform="translate(92 312) scale(1 1)"><g id="Male Head/Afro 1"><g id="Head"><g id="Group 3"><path id="Fill 1" fill-rule="evenodd" clip-rule="evenodd" d="M141.511 48.0814C183.245 49.7324 213.951 85.5134 213.951 125.878C213.951 152.227 202.181 176.488 191.647 188.382C161.612 193.154 117.851 194.072 77.6565 188.382C58.0705 168.641 52.9995 149.063 52.9995 126.878C52.9995 88.6844 85.6285 45.8704 141.511 48.0814" fill="#CADBDA"/></g><path id="Fill 4" fill-rule="evenodd" clip-rule="evenodd" d="M141.635 79.0423C120.313 77.3903 100.02 88.7303 100.02 124.4C89.4507 117.574 81.6347 128.474 83.0657 140.474C83.9977 148.286 93.1947 157.207 101.342 150.822C105.622 183.094 138.673 192.1 149.763 192.1C161.72 192.1 172.215 177.985 174.778 166.581C176.421 159.268 176.055 151.667 176.849 144.214C177.665 136.554 179.22 128.973 179.22 121.269C179.22 104.583 170.038 81.2443 141.635 79.0423" fill="#cc4937"/><path id="Fill 6" fill-rule="evenodd" clip-rule="evenodd" d="M101.341 150.823L102.388 191.049C102.388 191.049 121.427 192.313 131.415 192.313C137.8 192.313 149.763 192.1 149.763 192.1C136.396 191.806 105.441 181.732 101.341 150.823" fill="#16494C"/><path id="Fill 8" fill-rule="evenodd" clip-rule="evenodd" d="M192.005 109.582C194.175 104.517 193.088 98.0084 188.946 94.2714C190.349 89.7124 188.097 84.3094 183.872 82.0944C184.292 77.0744 178.837 72.5154 173.971 73.8194C173.537 67.8934 167.36 63.0584 161.503 64.0594C159.461 58.7344 152.615 55.8644 147.387 58.1414C145.061 55.6674 141.466 54.4564 138.117 55.0174C134.768 55.5774 131.764 57.8944 130.371 60.9904C128.133 58.4284 124.41 57.2684 121.112 58.1054C117.816 58.9444 115.098 61.7414 114.356 65.0624C110.639 63.3134 105.634 65.3764 104.227 69.2354C97.9949 69.2254 92.4049 74.8574 92.1149 81.0104C89.6619 81.1964 86.0659 81.5204 84.2499 84.0794C81.1519 88.4434 83.4369 93.1204 83.4369 93.1204C83.4369 93.1204 78.3319 94.5194 76.1859 98.9224C74.4569 102.467 74.5109 106.597 75.8889 108.986C73.9649 110.499 72.6439 112.777 72.3329 115.209C71.9689 118.051 72.9909 121.038 75.0209 123.061C72.8129 124.613 71.4129 127.255 71.3669 129.954C71.3279 132.23 72.2549 134.5 73.8339 136.126C71.9329 137.995 70.9799 140.849 71.5449 143.47C72.2629 146.799 75.3659 149.461 78.7659 149.663C77.5629 150.519 77.1529 152.207 77.5179 153.637C77.8839 155.066 78.8959 156.254 80.0539 157.168C81.9839 158.691 84.4089 159.551 86.8569 159.661C87.2289 160.801 88.1759 161.762 89.2779 162.288C90.6979 162.966 92.3289 163.041 93.8999 162.949C95.9369 162.831 101.607 161.28 101.607 161.28L101.341 150.822C95.3959 155.088 90.5249 152.611 86.4239 148.063C81.3249 142.411 82.9489 134.285 84.1229 130.361C85.9139 131.74 88.8399 131.639 90.7439 130.421C90.9299 132.898 92.6549 135.195 94.9839 136.063C96.2009 136.518 97.5489 136.569 98.8109 136.264C99.1759 137.157 99.7409 137.978 100.499 138.577C102.85 140.438 106.571 139.643 108.588 137.422C110.603 135.202 111.171 131.988 110.946 128.998C110.786 126.859 110.269 124.713 110.595 122.593C111.213 118.586 114.648 115.624 116.13 111.85C117.233 109.044 117.151 105.808 115.982 103.04C118.41 101.548 120.171 99.0444 121.133 96.3114C122.071 96.5624 123.078 96.5494 123.992 96.1974C125.408 95.6534 127.106 94.4864 128.201 95.5344C128.519 95.8394 128.676 96.2704 128.868 96.6674C129.579 98.1364 130.914 99.2884 132.47 99.7764C134.577 100.438 137.101 99.9724 138.826 101.352C139.497 101.888 139.95 102.641 140.471 103.323C142.864 106.455 147.023 108.055 150.905 107.589C151.755 109.062 153.15 110.223 154.768 110.755C156.757 111.409 159.041 111.1 160.784 109.939C162.505 108.793 163.832 106.831 165.88 106.55C166.444 106.473 167.018 106.535 167.587 106.502C170.064 106.355 172.128 104.358 173.084 102.067C173.509 101.048 173.533 98.6344 173.533 98.6344C179.864 108.932 180.359 123.96 177.731 137.267C181.185 137.831 187.288 137.488 189.058 131.077C189.659 128.897 189.557 124.536 187.951 122.943C191.695 121.45 192.78 115.72 189.842 112.96C190.757 111.96 191.477 110.813 192.005 109.582" fill="#751E0D"/><path id="Fill 10" fill-rule="evenodd" clip-rule="evenodd" d="M77.6559 188.382L77.6519 188.376C77.6479 188.375 77.6429 188.375 77.6389 188.375C76.3729 191.182 76.5449 194.869 78.1349 197.257C127.345 205.384 162.685 202.814 189.706 198.118C192.377 196.219 193.153 190.77 191.647 188.382C162.107 193.085 117.85 194.072 77.6559 188.382" fill="#FDCF3C"/><g id="Group 14"><path id="Fill 12" fill-rule="evenodd" clip-rule="evenodd" d="M189.702 198.118C162.729 202.805 127.466 205.373 78.3917 197.298C78.1987 197.294 78.0937 197.292 78.0937 197.292C78.0937 197.292 75.5267 201.774 79.1597 205.407C123.575 216.081 173.556 210.969 189.74 205.407C192.058 201.169 189.74 198.118 189.74 198.118H189.702Z" fill="#FDCF3C"/></g><path id="Fill 15" fill-rule="evenodd" clip-rule="evenodd" d="M77.8072 198.739C99.3792 202.832 121.371 204.694 143.324 204.296C156.724 204.052 170.154 203.022 183.388 200.862C185.657 200.492 187.933 200.11 190.176 199.599C192.057 199.172 191.261 196.278 189.378 196.707C182.868 198.188 176.162 199.002 169.533 199.702C152.262 201.527 134.815 201.804 117.486 200.722C104.437 199.907 91.4502 198.283 78.6052 195.846C76.7182 195.488 75.9102 198.38 77.8072 198.739" fill="#E35A38"/></g></g></g><g id="Expression" transform="translate(92 312) scale(1 1)"><g id="Expression/Dissapointed Red Lips"><g id="Face 8"><path id="Fill 1" fill-rule="evenodd" clip-rule="evenodd" d="M151.611 136.904C152.304 138.693 153.242 140.245 154.43 141.538C155.033 142.173 155.667 142.765 156.379 143.244C157.055 143.741 157.858 144.086 158.762 144.762C159.195 145.1 159.639 145.559 159.937 146.11C160.235 146.658 160.429 147.371 160.291 148.093C160.152 148.811 159.746 149.367 159.34 149.763C158.926 150.173 158.502 150.452 158.018 150.707C157.081 151.197 156.128 151.436 155.176 151.62C154.219 151.776 153.262 151.874 152.298 151.823C154.039 151.066 155.822 150.358 157.196 149.381C157.834 148.885 158.445 148.231 158.421 147.796C158.462 147.386 158.126 146.772 157.53 146.338C156.945 145.87 156.023 145.42 155.231 144.743C154.455 144.08 153.741 143.344 153.202 142.491C152.085 140.825 151.48 138.827 151.611 136.904" fill="#16494C"/><g id="Group 5"><path id="Fill 3" fill-rule="evenodd" clip-rule="evenodd" d="M140.645 164.653C142.457 163.825 144.268 163.395 146.079 163.087C147.891 162.793 149.702 162.656 151.513 162.654C153.324 162.651 155.136 162.788 156.947 163.081C158.758 163.388 160.57 163.82 162.381 164.653C160.57 165.487 158.758 165.918 156.947 166.226C155.136 166.519 153.324 166.656 151.513 166.653C149.702 166.65 147.891 166.514 146.079 166.22C144.268 165.912 142.457 165.482 140.645 164.653" fill="#930000"/></g><path id="Fill 6" fill-rule="evenodd" clip-rule="evenodd" d="M128.821 123.258C130.223 120.974 132.688 119.317 135.379 119.041C138.24 118.747 141.038 119.904 142.956 122.016C144.258 123.447 146.374 121.321 145.078 119.895C142.605 117.173 138.806 115.654 135.133 116.067C131.454 116.481 128.166 118.59 126.231 121.744C125.218 123.394 127.812 124.903 128.821 123.258" fill="#16494C"/><g id="Group 10"><path id="Fill 8" fill-rule="evenodd" clip-rule="evenodd" d="M172.795 120.851C171.062 118.597 168.455 117.147 165.568 117.164C162.687 117.182 160.083 118.659 158.382 120.935C157.897 121.584 158.277 122.611 158.92 122.987C159.686 123.435 160.487 123.1 160.973 122.449C163.184 119.488 167.943 119.424 170.205 122.366C170.698 123.006 171.495 123.349 172.257 122.904C172.888 122.535 173.292 121.497 172.795 120.851" fill="#16494C"/></g><path id="Fill 11" fill-rule="evenodd" clip-rule="evenodd" d="M143.971 132.788C143.971 135.641 141.014 137.953 137.367 137.953C133.72 137.953 130.763 135.641 130.763 132.788C130.763 129.935 133.72 127.623 137.367 127.623C141.014 127.623 143.971 129.935 143.971 132.788" fill="#FFFCF8"/><path id="Fill 13" fill-rule="evenodd" clip-rule="evenodd" d="M130.763 132.789C130.318 131.181 131.132 129.298 132.476 128.168C133.812 126.993 135.604 126.394 137.367 126.391C139.13 126.391 140.922 126.991 142.26 128.165C143.605 129.295 144.418 131.181 143.971 132.789C143.54 131.206 142.518 130.126 141.33 129.419C140.129 128.714 138.746 128.405 137.367 128.39C135.987 128.402 134.604 128.712 133.402 129.416C132.213 130.123 131.191 131.206 130.763 132.789" fill="#16494C"/><path id="Fill 15" fill-rule="evenodd" clip-rule="evenodd" d="M143.971 132.788C143.971 134.989 142.198 136.773 140.01 136.773C137.823 136.773 136.049 134.989 136.049 132.788C136.049 130.587 137.823 128.802 140.01 128.802C142.198 128.802 143.971 130.587 143.971 132.788" fill="#16494C"/><path id="Fill 17" fill-rule="evenodd" clip-rule="evenodd" d="M171.371 132.788C171.371 135.641 168.414 137.953 164.767 137.953C161.12 137.953 158.163 135.641 158.163 132.788C158.163 129.935 161.12 127.623 164.767 127.623C168.414 127.623 171.371 129.935 171.371 132.788" fill="#FFFCF8"/><path id="Fill 19" fill-rule="evenodd" clip-rule="evenodd" d="M158.163 132.789C157.719 131.181 158.532 129.298 159.876 128.168C161.213 126.993 163.004 126.394 164.767 126.391C166.53 126.391 168.322 126.991 169.66 128.165C171.005 129.295 171.818 131.181 171.371 132.789C170.94 131.206 169.918 130.126 168.73 129.419C167.529 128.714 166.146 128.405 164.767 128.39C163.388 128.402 162.004 128.712 160.802 129.416C159.613 130.123 158.591 131.206 158.163 132.789" fill="#16494C"/><path id="Fill 21" fill-rule="evenodd" clip-rule="evenodd" d="M171.371 132.788C171.371 134.989 169.598 136.773 167.41 136.773C165.223 136.773 163.45 134.989 163.45 132.788C163.45 130.587 165.223 128.802 167.41 128.802C169.598 128.802 171.371 130.587 171.371 132.788" fill="#16494C"/></g></g></g></g></svg>